<?xml version="1.0" encoding="utf-8"?>
<!-- Generator: Adobe Illustrator 25.3.0, SVG Export Plug-In . SVG Version: 6.00 Build 0)  -->
<svg version="1.1" id="Capa_1" xmlns="http://www.w3.org/2000/svg" xmlns:xlink="http://www.w3.org/1999/xlink" x="0px" y="0px"
	 viewBox="0 0 360 360" style="enable-background:new 0 0 360 360;" xml:space="preserve">
<style type="text/css">
	.st0{fill:#FFFFFF;}
</style>
<path class="st0" d="M309.9,125c0,1.7,0,3.3,0,5c-0.3,0.3-0.9,0.6-0.9,0.9c-1.4,11.5-2.8,23.1-4,34.6c-2.1,19.5-4.1,38.9-6.3,58.4
	c-2.5,22.6-5.4,45.1-7.6,67.7c-2.1,21.8-20.3,39.2-42.1,39.2c-45.9,0.1-91.9,0-137.8,0c-19.6,0-37.1-14.1-41-33.4
	c-2.4-11.5-2.9-23.3-4.2-35c-2.2-19.6-4.6-39.2-6.8-58.8c-2.2-19.5-4-39-6.4-58.4c-0.6-5.1,0.2-10.5-2.6-15.3c0-2,0-4,0-6
	c3.2-7.1,8.9-9.1,16.4-8.9c14.8,0.4,29.6,0,44.5,0.2c3.4,0,4.5-0.8,4.4-4.3c-0.3-9.3-0.6-18.7,0.8-27.9c4.5-28.9,30-52.3,58.8-54.1
	c30.8-1.9,58.3,17.1,67,46.3c3.5,11.9,2.7,24,2.7,36.1c0,3.1,0.8,3.8,3.9,3.8c15.2-0.2,30.3,0.2,45.5-0.2
	C301.8,115,307.4,117.2,309.9,125z M179.8,309.8c22.5,0,44.9,0,67.4,0c11.9,0,21.4-8.2,22.6-19.5c2.3-20.6,4.6-41.2,6.9-61.8
	c3.3-29.5,6.5-59,9.9-88.6c0.3-2.5-0.3-3.2-2.8-3.2c-12.2,0.1-24.3,0.1-36.5,0c-2.3,0-2.7,0.9-2.7,2.9c0.1,5.3,0.1,10.7,0,16
	c-0.1,2.2,0.6,2.9,2.9,3.5c5.5,1.3,8.1,5.8,7.4,11.8c-0.6,4.9-4.5,8.8-9.7,9c-7.5,0.3-15,0.2-22.5,0c-5-0.1-9.2-3.7-10-8.2
	c-0.9-4.8,0.1-10,4.9-11.3c6.2-1.7,5.6-5.6,5.4-10c-0.1-3.5-0.1-7,0-10.5c0.1-2.2-0.3-3.2-2.9-3.2c-27,0.1-53.9,0.1-80.9,0.1
	c-2.2,0-2.7,0.7-2.7,2.8c0.1,5.3,0.1,10.7,0,16c0,2.1,0.4,3,2.8,3.6c5.4,1.3,8.1,5.7,7.6,11.2c-0.4,5.1-4.4,9.3-9.8,9.6
	c-7.6,0.3-15.3,0.2-23,0c-4.7-0.2-8.7-3.9-9.5-8.1c-0.9-4.8,0.1-10.1,4.8-11.4c6.5-1.8,5.6-5.9,5.5-10.3c-0.1-3.3-0.2-6.7,0-10
	c0.2-2.7-0.8-3.3-3.3-3.3c-11.8,0.1-23.6,0.1-35.5,0c-3,0-3.6,0.8-3.1,3.8c1.1,7,1.8,14.1,2.6,21.2c2.1,19.5,4.1,39,6.3,58.4
	c2.5,22.4,5.3,44.8,7.7,67.3c1.5,14.5,9.8,22.4,24.4,22.4C136.2,309.8,158,309.8,179.8,309.8z M180.3,115.3
	C180.3,115.3,180.3,115.3,180.3,115.3c13.1,0,26.3-0.1,39.4,0.1c2.8,0,3.7-0.7,3.6-3.5c-0.2-6.8,0.1-13.7-0.2-20.5
	c-1-22.1-18-39.3-40.3-41.2c-20.3-1.7-39.9,12.9-44.8,33.3c-2.2,9.2-0.7,18.5-1.2,27.8c-0.2,3.3,0.9,4.1,4.1,4
	C154,115.2,167.1,115.3,180.3,115.3z"/>
<path class="st0" d="M179.5,277c-2.1,0.3-4.2-0.9-6.1-2.2c-10.4-6.9-20.7-13.8-31-20.7c-5.7-3.8-7.1-9.8-3.9-15
	c3.3-5.3,9.8-6.5,15.6-2.7c6.7,4.3,13.4,8.6,19.8,13.3c3,2.1,4.4,1.8,6.6-1c10.9-14,22.1-27.8,33.1-41.7c3-3.8,6.8-5.9,11.7-4.9
	c4.2,0.9,6.8,3.7,8.1,7.8c1.1,3.6-0.1,6.6-2.2,9.3c-14.3,18.1-28.7,36-43.1,54C186.1,275.8,183.3,277,179.5,277z"/>
</svg>
